<svg width="160" height="160" viewBox="125 45 165 165" fill="none" xmlns="http://www.w3.org/2000/svg">
<path d="M217.165 49.7852C254.13 49.7852 284.097 79.7534 284.097 116.72C284.097 126.194 282.127 135.207 278.576 143.375L278.587 143.378C278.567 143.423 274.499 152.616 268.897 163.14C257.183 187.05 232.609 203.514 204.189 203.514C164.415 203.514 132.17 171.268 132.17 131.491C132.17 108.119 143.302 87.3481 160.553 74.1905C160.551 74.1864 160.549 74.1823 160.546 74.1782C160.703 74.0651 160.86 73.9534 161.016 73.841C162.068 73.0513 163.143 72.2896 164.239 71.5572C169.166 68.1228 173.896 65.063 177.509 62.7941C188.608 54.6175 202.322 49.7852 217.165 49.7852ZM204.189 59.4694C197.736 59.4694 191.48 60.3194 185.528 61.9118L185.53 61.9178C174.079 65.9873 171.539 66.4951 162.997 77.3968C154.969 88.4368 150.234 102.025 150.234 116.72C150.234 153.687 180.2 183.654 217.165 183.655C238.246 183.655 257.048 173.906 269.317 158.673C272.704 154.087 273.391 150.457 275.264 142.373L275.385 142.409C275.926 138.848 276.208 135.203 276.208 131.491C276.208 91.7147 243.964 59.4695 204.189 59.4694Z" fill="black"/>
</svg>
