<svg width="1200" height="630" viewBox="0 0 1200 630" fill="none" xmlns="http://www.w3.org/2000/svg">
  <defs>
    <radialGradient id="glowTop" cx="0" cy="0" r="1" gradientUnits="userSpaceOnUse" gradientTransform="translate(965 115) rotate(126.598) scale(630.852 1097.36)">
      <stop stop-color="#1E4B87"/>
      <stop offset="0.34" stop-color="#173B6D" stop-opacity="0.68"/>
      <stop offset="1" stop-color="#173B6D" stop-opacity="0"/>
    </radialGradient>
    <radialGradient id="glowBottom" cx="0" cy="0" r="1" gradientUnits="userSpaceOnUse" gradientTransform="translate(112 540) rotate(-12.442) scale(545.859 356.782)">
      <stop stop-color="#153765"/>
      <stop offset="0.42" stop-color="#14335E" stop-opacity="0.55"/>
      <stop offset="1" stop-color="#14335E" stop-opacity="0"/>
    </radialGradient>
    <linearGradient id="baseShade" x1="0" y1="0" x2="1200" y2="630" gradientUnits="userSpaceOnUse">
      <stop stop-color="#07102F"/>
      <stop offset="1" stop-color="#08142F"/>
    </linearGradient>
  </defs>
  <rect width="1200" height="630" fill="url(#baseShade)"/>
  <rect width="1200" height="630" fill="url(#glowTop)"/>
  <rect width="1200" height="630" fill="url(#glowBottom)"/>
  <g transform="translate(225 182) scale(0.652360515)">
    <path d="M102.074 95.9994C100.966 85.3265 97.0852 77.6344 90.4324 72.9224C83.9186 68.0711 75.534 65.6456 65.278 65.6456C61.1202 65.6456 57.0317 66.0614 53.0125 66.893C48.9933 67.7247 45.3898 69.1105 42.2021 71.0509C39.1531 72.9913 36.6584 75.6245 34.7181 78.9514C32.9164 82.1393 32.0155 86.1584 32.0155 91.0094C32.0155 95.5831 33.3322 99.3256 35.9654 102.236C38.7373 105.008 42.3408 107.295 46.7758 109.097C51.3494 110.898 56.4773 112.423 62.1596 113.671C67.8419 114.779 73.5937 116.027 79.4146 117.413C85.3738 118.799 91.1948 120.462 96.8774 122.403C102.559 124.204 107.619 126.699 112.053 129.887C116.627 133.075 120.23 137.094 122.864 141.945C125.635 146.796 127.022 152.894 127.022 160.24C127.022 168.14 125.22 174.932 121.616 180.614C118.151 186.158 113.647 190.732 108.104 194.335C102.559 197.801 96.3228 200.296 89.3934 201.82C82.6024 203.484 75.8113 204.315 69.0202 204.315C60.7044 204.315 52.8046 203.276 45.3205 201.196C37.9751 199.118 31.4612 195.999 25.7788 191.841C20.2351 187.544 15.8001 182.139 12.4739 175.624C9.28618 168.972 7.69238 161.141 7.69238 152.132H26.4025C26.4025 158.369 27.5806 163.774 29.9367 168.348C32.4313 172.783 35.619 176.456 39.4996 179.367C43.5188 182.278 48.1617 184.426 53.4282 185.812C58.6948 187.198 64.0999 187.891 69.6436 187.891C74.0788 187.891 78.514 187.475 82.9485 186.643C87.5219 185.812 91.611 184.426 95.2143 182.485C98.8177 180.407 101.728 177.634 103.946 174.169C106.163 170.705 107.272 166.269 107.272 160.864C107.272 155.735 105.886 151.578 103.114 148.39C100.481 145.202 96.8774 142.638 92.3039 140.697C87.8687 138.619 82.8102 136.955 77.1275 135.708C71.4456 134.461 65.6245 133.213 59.6649 131.966C53.844 130.58 48.0924 129.055 42.4101 127.392C36.7277 125.59 31.5998 123.303 27.0262 120.531C22.5912 117.62 18.9878 113.948 16.2159 109.513C13.5826 104.939 12.266 99.2561 12.266 92.4647C12.266 84.9804 13.7905 78.5351 16.8395 73.1302C19.8886 67.586 23.9078 63.0815 28.8972 59.6166C34.0251 56.0129 39.7768 53.3796 46.1521 51.7163C52.6659 49.9145 59.3184 49.0137 66.1096 49.0137C73.732 49.0137 80.8004 49.9145 87.3141 51.7163C93.8279 53.5181 99.5105 56.3594 104.361 60.2402C109.351 64.121 113.232 69.0416 116.003 75.0011C118.914 80.8223 120.508 87.8215 120.784 95.9994H102.074ZM291.686 52.5479H311.436V184.357H390.019V200.989H291.686V52.5479ZM441.09 139.658H491.4L466.661 70.4275H466.244L441.09 139.658ZM455.85 52.5479H477.678L535.68 200.989H513.851L497.636 156.29H434.853L418.222 200.989H398.056L455.85 52.5479ZM544.087 52.5479H613.938C628.074 52.5479 639.092 56.0129 646.992 62.943C655.03 69.8729 659.05 79.367 659.05 91.425C659.05 100.434 656.971 108.335 652.813 115.126C648.794 121.917 642.28 126.561 633.271 129.055V129.471C637.568 130.302 641.033 131.688 643.666 133.629C646.438 135.569 648.586 137.926 650.111 140.697C651.774 143.331 652.952 146.311 653.645 149.638C654.476 152.964 655.1 156.429 655.515 160.032C655.793 163.636 656 167.309 656.139 171.051C656.278 174.793 656.624 178.466 657.179 182.07C657.733 185.673 658.495 189.138 659.465 192.465C660.575 195.652 662.168 198.494 664.247 200.989H642.211C640.825 199.464 639.855 197.385 639.3 194.752C638.884 192.118 638.607 189.208 638.469 186.02C638.33 182.693 638.192 179.159 638.053 175.417C637.914 171.675 637.499 168.002 636.806 164.398C636.251 160.795 635.558 157.399 634.727 154.211C633.895 150.884 632.578 148.043 630.776 145.687C628.975 143.192 626.619 141.252 623.709 139.866C620.798 138.341 616.917 137.579 612.066 137.579H563.836V200.989H544.087V52.5479ZM604.999 120.947C609.572 120.947 613.938 120.6 618.096 119.908C622.254 119.215 625.857 117.898 628.906 115.957C632.093 113.879 634.588 111.176 636.39 107.85C638.33 104.384 639.3 99.949 639.3 94.5434C639.3 87.0591 637.221 80.9606 633.064 76.2486C628.906 71.536 622.184 69.18 612.898 69.18H563.836V120.947H604.999ZM711.972 139.658H762.285L737.541 70.4275H737.125L711.972 139.658ZM726.736 52.5479H748.564L806.562 200.989H784.734L768.519 156.29H705.738L689.101 200.989H668.939L726.736 52.5479ZM904.633 139.658H954.946L930.209 70.4275H929.793L904.633 139.658ZM919.397 52.5479H941.225L999.223 200.989H977.395L961.18 156.29H898.399L881.769 200.989H861.603L919.397 52.5479ZM1014.7 52.5479H1034.45V200.989H1014.7V52.5479Z" fill="#F9FAFC"/>
    <path d="M217.165 49.7852C254.13 49.7852 284.097 79.7534 284.097 116.72C284.097 126.194 282.127 135.207 278.576 143.375L278.587 143.378C278.567 143.423 274.499 152.616 268.897 163.14C257.183 187.05 232.609 203.514 204.189 203.514C164.415 203.514 132.17 171.268 132.17 131.491C132.17 108.119 143.302 87.3481 160.553 74.1905C160.551 74.1864 160.549 74.1823 160.546 74.1782C160.703 74.0651 160.86 73.9534 161.016 73.841C162.068 73.0513 163.143 72.2896 164.239 71.5572C169.166 68.1228 173.896 65.063 177.509 62.7941C188.608 54.6175 202.322 49.7852 217.165 49.7852ZM204.189 59.4694C197.736 59.4694 191.48 60.3194 185.528 61.9118L185.53 61.9178C174.079 65.9873 171.539 66.4951 162.997 77.3968C154.969 88.4368 150.234 102.025 150.234 116.72C150.234 153.687 180.2 183.654 217.165 183.655C238.246 183.655 257.048 173.906 269.317 158.673C272.704 154.087 273.391 150.457 275.264 142.373L275.385 142.409C275.926 138.848 276.208 135.203 276.208 131.491C276.208 91.7147 243.964 59.4695 204.189 59.4694Z" fill="#F9FAFC"/>
  </g>
  <text x="600" y="444" fill="#BCC7D5" font-family="Inter, Arial, sans-serif" font-size="48" font-weight="400" text-anchor="middle" letter-spacing="-0.03em">The AI Era In Marketing</text>
</svg>
