<svg width="130" height="130" viewBox="26 24 130 130" fill="none" xmlns="http://www.w3.org/2000/svg">
<path d="M98.1396 28.7063C127.143 28.7063 150.655 52.2185 150.655 81.2219C150.655 88.6548 149.109 95.7259 146.323 102.134L146.333 102.137C146.333 102.137 143.13 109.373 138.721 117.656C129.526 136.408 110.252 149.319 87.959 149.32C56.7508 149.32 31.4512 124.02 31.4512 92.8118C31.4512 74.4746 40.1863 58.1784 53.7217 47.8547C53.7198 47.8514 53.7177 47.8483 53.7158 47.845C53.8227 47.7677 53.9302 47.6915 54.0371 47.6145C54.8888 46.9743 55.7594 46.3581 56.6475 45.7659C60.4956 43.0845 64.1886 40.6963 67.0137 38.9221C75.7242 32.5017 86.4885 28.7063 98.1396 28.7063ZM87.959 36.304C82.8946 36.304 77.9859 36.9712 73.3154 38.2209L73.3184 38.2258C65.5064 41.9969 64.0019 42.4992 55.5566 50.4807C49.3071 59.1224 45.624 69.7422 45.624 81.2219C45.624 110.225 69.1362 133.737 98.1396 133.738C112.054 133.738 124.702 128.324 134.099 119.491C139.526 112.596 141.638 109.823 143.427 103.633C144.106 100.13 144.466 96.513 144.466 92.8118C144.466 61.6037 119.167 36.3042 87.959 36.304Z" fill="white"/>
</svg>
